<svg width="139" height="139" viewBox="0 0 139 139" fill="none" xmlns="http://www.w3.org/2000/svg">
<rect width="139" height="139" rx="32" fill="#A6C8FA"/>
<g filter="url(#filter0_d_2_4)">
<rect x="23" y="23" width="93" height="93" rx="18" fill="white"/>
<rect x="23.5" y="23.5" width="92" height="92" rx="17.5" stroke="white"/>
</g>
<path d="M41 23.5H98C107.665 23.5 115.5 31.335 115.5 41V48.5H23.5V41C23.5 31.4862 31.0918 23.7457 40.5479 23.5059L41 23.5Z" fill="url(#paint0_linear_2_4)" stroke="white"/>
<g filter="url(#filter1_d_2_4)">
<rect x="42" y="16" width="11" height="22" rx="5.5" fill="white"/>
<rect x="86" y="16" width="11" height="22" rx="5.5" fill="white"/>
</g>
<path d="M54 80L67.5 93L91 71" stroke="#0D6EFD" stroke-width="12" stroke-linecap="round" stroke-linejoin="round"/>
<defs>
<filter id="filter0_d_2_4" x="23" y="23" width="101" height="101" filterUnits="userSpaceOnUse" color-interpolation-filters="sRGB">
<feFlood flood-opacity="0" result="BackgroundImageFix"/>
<feColorMatrix in="SourceAlpha" type="matrix" values="0 0 0 0 0 0 0 0 0 0 0 0 0 0 0 0 0 0 127 0" result="hardAlpha"/>
<feOffset dx="4" dy="4"/>
<feGaussianBlur stdDeviation="2"/>
<feComposite in2="hardAlpha" operator="out"/>
<feColorMatrix type="matrix" values="0 0 0 0 0 0 0 0 0 0 0 0 0 0 0 0 0 0 0.25 0"/>
<feBlend mode="normal" in2="BackgroundImageFix" result="effect1_dropShadow_2_4"/>
<feBlend mode="normal" in="SourceGraphic" in2="effect1_dropShadow_2_4" result="shape"/>
</filter>
<filter id="filter1_d_2_4" x="39" y="14" width="63" height="30" filterUnits="userSpaceOnUse" color-interpolation-filters="sRGB">
<feFlood flood-opacity="0" result="BackgroundImageFix"/>
<feColorMatrix in="SourceAlpha" type="matrix" values="0 0 0 0 0 0 0 0 0 0 0 0 0 0 0 0 0 0 127 0" result="hardAlpha"/>
<feOffset dx="1" dy="2"/>
<feGaussianBlur stdDeviation="2"/>
<feComposite in2="hardAlpha" operator="out"/>
<feColorMatrix type="matrix" values="0 0 0 0 0 0 0 0 0 0 0 0 0 0 0 0 0 0 0.25 0"/>
<feBlend mode="normal" in2="BackgroundImageFix" result="effect1_dropShadow_2_4"/>
<feBlend mode="normal" in="SourceGraphic" in2="effect1_dropShadow_2_4" result="shape"/>
</filter>
<linearGradient id="paint0_linear_2_4" x1="9" y1="23" x2="101" y2="42.5" gradientUnits="userSpaceOnUse">
<stop stop-color="#134B9C"/>
<stop offset="1" stop-color="#3285FF"/>
</linearGradient>
</defs>
</svg>
